<svg class="i i-gear" viewBox="0 0 24 24" xmlns="http://www.w3.org/2000/svg" fill="none" stroke="currentColor" stroke-width="2" stroke-linecap="round" stroke-linejoin="round">
  <circle cx="12" cy="12" r="3"/>
  <path d="M10 21a1 1 0 004 0 1.8 1.8 0 012.95-1.22 1 1 0 002.83-2.83A1.8 1.8 0 0121 14a1 1 0 000-4 1.8 1.8 0 01-1.22-2.95 1 1 0 00-2.83-2.83A1.8 1.8 0 0114 3a1 1 0 00-4 0 1.8 1.8 0 01-2.95 1.22 1 1 0 00-2.83 2.83A1.8 1.8 0 013 10a1 1 0 000 4 1.8 1.8 0 011.22 2.95 1 1 0 002.83 2.83A1.8 1.8 0 0110 21Z"/>
</svg>