<svg xmlns="http://www.w3.org/2000/svg" xmlns:xlink="http://www.w3.org/1999/xlink"><symbol viewBox="0 0 24 24" id="adobe"><path d="M2.24 18.05A2 2 0 0 0 4 21h9.86L11 16H9.14L12 11l5.71 10H20a2 2 0 0 0 1.76-2.95L13.75 4.03a2 2 0 0 0-3.5 0Z"/></symbol><symbol viewBox="0 0 24 24" id="airplay"><path d="M18 17h2a2 2 0 0 0 2-2V6a2 2 0 0 0-2-2H4a2 2 0 0 0-2 2v9a2 2 0 0 0 2 2h2m2 3h8l-4-6Z"/></symbol><symbol viewBox="0 0 24 24" id="alarm-clock"><circle cx="12" cy="12" r="10"/><path d="m1 4 3-3m16 0 3 3M12 7v5l3 3"/></symbol><symbol viewBox="0 0 24 24" id="alarm-exclamation"><circle cx="12" cy="12" r="10"/><path d="m1 4 3-3m16 0 3 3M12 8v4m0 4z"/></symbol><symbol viewBox="0 0 24 24" id="alarm-minus"><circle cx="12" cy="12" r="10"/><path d="m1 4 3-3m16 0 3 3M9 12h6"/></symbol><symbol viewBox="0 0 24 24" id="alarm-plus"><circle cx="12" cy="12" r="10"/><path d="m1 4 3-3m16 0 3 3M9 12h6m-3-3v6"/></symbol><symbol viewBox="0 0 24 24" id="alarm-snooze"><circle cx="12" cy="12" r="10"/><path d="m1 4 3-3m16 0 3 3M9 9h6l-6 6h6"/></symbol><symbol viewBox="0 0 24 24" id="album"><rect width="20" height="20" x="2" y="2" rx="3"/><circle cx="12" cy="12" r="6"/><path d="M12 12z"/></symbol><symbol viewBox="0 0 24 24" id="algolia"><path d="M15.8 21.25A10 10 0 1 1 12 2h9v19l-6.17-6.17a4 4 0 1 1 1.07-3.72"/></symbol><symbol viewBox="0 0 24 24" id="alien"><path d="m8 11 2 2m6-2-2 2m-2 9q8-4 8-12t-8-8-8 8 8 12Z"/></symbol><symbol viewBox="0 0 24 24" id="align-center"><path d="M19 18H5m2-6h10m4-6H3"/></symbol><symbol viewBox="0 0 24 24" id="align-justify"><path d="M21 18H3m18-6H3m18-6H3"/></symbol><symbol viewBox="0 0 24 24" id="align-left"><path d="M17 18H3m10-6H3m18-6H3"/></symbol><symbol viewBox="0 0 24 24" id="align-right"><path d="M21 18H7m14-6H11m10-6H3"/></symbol><symbol viewBox="0 0 24 24" id="amazon"><path d="M2 11q8 6 16 1m-1-4q3 0 5 1 0 4-2 7"/></symbol><symbol viewBox="0 0 24 24" id="anchor"><circle cx="12" cy="5" r="3"/><path d="M12 8v14m7-10h3a10 10 0 0 1-20 0h3"/></symbol><symbol viewBox="0 0 24 24" id="android"><path d="M23 19a1 1 0 0 0-22 0ZM6.5 9.5 4 5m13.5 4.5L20 5M7 14.5Zm10 0Z"/></symbol><symbol viewBox="0 0 24 24" id="angle-down"><path d="m6 9 6 6 6-6"/></symbol><symbol viewBox="0 0 24 24" id="angle-left"><path d="m15 6-6 6 6 6"/></symbol><symbol viewBox="0 0 24 24" id="angle-right"><path d="m9 6 6 6-6 6"/></symbol><symbol viewBox="0 0 24 24" id="angle-up"><path d="m6 15 6-6 6 6"/></symbol><symbol viewBox="0 0 24 24" id="angles-down"><path d="m7 7 5 5 5-5M7 13l5 5 5-5"/></symbol><symbol viewBox="0 0 24 24" id="angles-left"><path d="m11 7-5 5 5 5m6-10-5 5 5 5"/></symbol><symbol viewBox="0 0 24 24" id="angles-right"><path d="m7 7 5 5-5 5m6-10 5 5-5 5"/></symbol><symbol viewBox="0 0 24 24" id="angles-up"><path d="m7 11 5-5 5 5M7 17l5-5 5 5"/></symbol><symbol viewBox="0 0 24 24" id="app-gallery"><rect width="20" height="20" x="2" y="2" rx="6"/><path d="M8 7a1 1 0 0 0 8 0"/></symbol><symbol viewBox="0 0 24 24" id="app-store"><circle cx="12" cy="12" r="11"/><path d="M5.3 14h7.2m2.87 0h3.33M7 16.9l6.5-11.7m-3 0L12 7.9m1.5 2.7 3.5 6.3"/></symbol><symbol viewBox="0 0 24 24" id="apple"><path d="M8 6a4 6 0 0 0 0 16q2 0 3-.5t2 0 3 .5q4 0 5.2-6a1 1 0 0 1-1.6-7.9Q18 6 16 6q-1 0-2.5.5t-3 0T8 6Zm4-3q2 0 2-2-2 0-2 2Z"/></symbol><symbol viewBox="0 0 24 24" id="apple-whole"><path d="M8 6a4 6 0 0 0 0 16q2 0 3-.5t2 0 3 .5a4 6 0 0 0 0-16q-1 0-2.5.5t-3 0T8 6Zm4-3q2 0 2-2-2 0-2 2Z"/></symbol><symbol viewBox="0 0 24 24" id="arrow-down"><path d="m5 12 7 7 7-7m-7 7V5"/></symbol><symbol viewBox="0 0 24 24" id="arrow-down-left"><path d="M17 7 7 17m10 0H7V7"/></symbol><symbol viewBox="0 0 24 24" id="arrow-down-right"><path d="M7 17h10V7m0 10L7 7"/></symbol><symbol viewBox="0 0 24 24" id="arrow-left"><path d="m12 19-7-7 7-7m7 7H5"/></symbol><symbol viewBox="0 0 24 24" id="arrow-right"><path d="m12 19 7-7-7-7m7 7H5"/></symbol><symbol viewBox="0 0 24 24" id="arrow-up"><path d="M12 5v14m7-7-7-7-7 7"/></symbol><symbol viewBox="0 0 24 24" id="arrow-up-left"><path d="M17 17 7 7m0 10V7h10"/></symbol><symbol viewBox="0 0 24 24" id="arrow-up-right"><path d="M7 17 17 7M7 7h10v10"/></symbol><symbol viewBox="0 0 24 24" id="astro"><path d="M8 18q0 3 4 5 4-2 4-5-4 2-8 0Zm7-4q3 0 6 2L15 2H9L3 16q3-2 6-2l3-7Z"/></symbol><symbol viewBox="0 0 24 24" id="at"><circle cx="12" cy="12" r="4"/><path d="M18 20a10 10 0 1 1 4-8v1a1 1 0 0 1-6 0v-1"/></symbol><symbol viewBox="0 0 24 24" id="atom"><circle cx="12" cy="12" r="1"/><path d="M8 8c5-5 11-7 13-5s0 8-5 13-11 7-13 5 0-8 5-13Zm8 0c5 5 7 11 5 13s-8 0-13-5S1 5 3 3s8 0 13 5Z"/></symbol><symbol viewBox="0 0 24 24" id="backward"><path d="m2 12 9-7v14Zm11 0 9-7v14Z"/></symbol><symbol viewBox="0 0 24 24" id="backward-step"><path d="M5 5v14m14 1V4L9 12z"/></symbol><symbol viewBox="0 0 24 24" id="badge-check"><path d="m9 12 2 2 4-4m4.8 5.2a1 1 0 0 0 0-6.4 1 1 0 0 0-4.6-4.6 1 1 0 0 0-6.4 0 1 1 0 0 0-4.6 4.6 1 1 0 0 0 0 6.4 1 1 0 0 0 4.6 4.6 1 1 0 0 0 6.4 0 1 1 0 0 0 4.6-4.6Z"/></symbol><symbol viewBox="0 0 24 24" id="bars"><path d="M20 6H4m16 12H4m16-6H4"/></symbol><symbol viewBox="0 0 24 24" id="bars-filter"><path d="M14 18h-4m7-6H7m13-6H4"/></symbol><symbol viewBox="0 0 24 24" id="bars-sort"><path d="M8 18H4m10-6H4m16-6H4"/></symbol><symbol viewBox="0 0 24 24" id="bilibili"><rect width="20" height="16" x="2" y="5" rx="4"/><path d="m7 2 3 3m7-3-3 3m-5 9v-2m6 0v2"/></symbol><symbol viewBox="0 0 24 24" id="binance"><path d="M1 12 12 1l11 11-11 11Zm3.5-3.5L12 16l7.5-7.5m-15 7L12 8l7.5 7.5"/></symbol><symbol viewBox="0 0 24 24" id="blogger"><path d="M20 9a2 2 0 0 1 2 2v5a6 6 0 0 1-6 6H8a6 6 0 0 1-6-6V8a6 6 0 0 1 6-6h4a6 6 0 0 1 6 6q0 1 1 1Zm-8 0H8m8 6H8"/></symbol><symbol viewBox="0 0 24 24" id="bluesky"><path d="M12 10q5-7 8-7t2 6-6 5q6 3 2 6t-6-3q-2 6-6 3t2-6q-5 1-6-5t2-6 8 7Z"/></symbol><symbol viewBox="0 0 24 24" id="bolt"><path d="M4 14h7v8l9-12h-7V2Z"/></symbol><symbol viewBox="0 0 24 24" id="book"><path d="M4 19V5a3 3 0 0 1 3-3h13v14m0 0v6H7a1 1 0 0 1 0-6Z"/></symbol><symbol viewBox="0 0 24 24" id="book-marked"><path d="M4 19V5a3 3 0 0 1 3-3h13v14m0 0v6H7a1 1 0 0 1 0-6ZM10 2v8l3-3 3 3V2"/></symbol><symbol viewBox="0 0 24 24" id="book-open"><path d="M22 18H2V3h6a4 4 0 0 1 4 4 4 4 0 0 1 4-4h6ZM12 7v14"/></symbol><symbol viewBox="0 0 24 24" id="bookmark"><path d="M19 21V5a2 2 0 0 0-2-2H7a2 2 0 0 0-2 2v16l7-4Z"/></symbol><symbol viewBox="0 0 24 24" id="books"><rect width="8" height="18" x="3" y="3" rx="1"/><path d="M7 21V3m4.62 2.05a1 1-20 0 1 .6-1.28l1.88-.68a1 1-20 0 1 1.28.6l5.56 15.29a1 1-20 0 1-.6 1.28l-1.88.68a1 1-20 0 1-1.28-.6Z"/></symbol><symbol viewBox="0 0 24 24" id="boolean"><path d="M5 15H4a2 2 0 0 1-2-2V4a2 2 0 0 1 2-2h9a2 2 0 0 1 2 2v1m5 17a2 2 0 0 0 2-2m0-4v-1m0-4a2 2 0 0 0-2-2m-4 0h-1m-4 0a2 2 0 0 0-2 2m0 4v1m0 4a2 2 0 0 0 2 2m4 0h1"/></symbol><symbol viewBox="0 0 24 24" id="box-archive"><path d="M21 8v10a3 3 0 0 1-3 3H6a3 3 0 0 1-3-3V8M1 8V3h22v5Zm9 4h4"/></symbol><symbol viewBox="0 0 24 24" id="brackets"><path d="M9 20H4V4h5m6 16h5V4h-5"/></symbol><symbol viewBox="0 0 24 24" id="brackets-angled"><path d="m16 4 5 8-5 8M8 4l-5 8 5 8"/></symbol><symbol viewBox="0 0 24 24" id="brackets-curly"><path d="M15 4h3a2 2 0 0 1 2 2q0 5 3 6-3 1-3 6a2 2 0 0 1-2 2h-3M9 4H6a2 2 0 0 0-2 2q0 5-3 6 3 1 3 6a2 2 0 0 0 2 2h3"/></symbol><symbol viewBox="0 0 24 24" id="brackets-round"><path d="M8 4a9 9 0 0 0 0 16m8 0a9 9 0 0 0 0-16"/></symbol><symbol viewBox="0 0 24 24" id="broom"><path d="m23 1-6 6M9 6q4-3 8 1t1 8l-6 8-6-6 1-3-3 1-3-3Zl9 9"/></symbol><symbol viewBox="0 0 24 24" id="brush"><path d="M2 17v5h5a5 5 0 1 0-5-5m6.4-4.8Q12 4 22 2q-2 10-10.2 13.6m-1.36-6.9q3.36 1.5 4.86 4.86"/></symbol><symbol viewBox="0 0 24 24" id="bullhorn"><path d="M6 14v5a2 2 0 0 0 4 0V7M3 9a2 2 0 0 1 2-2h5q6 0 11-4v15q-5-4-11-4H5a2 2 0 0 1-2-2Z"/></symbol><symbol viewBox="0 0 24 24" id="calendar"><rect width="18" height="17" x="3" y="5" rx="3"/><path d="M21 10H3m14-5V2M7 5V2"/></symbol><symbol viewBox="0 0 24 24" id="camera"><path d="M15 3q2 0 2 2 0 1 1 1h3a2 2 0 0 1 2 2v11a2 2 0 0 1-2 2H3a2 2 0 0 1-2-2V8a2 2 0 0 1 2-2h3q1 0 1-1 0-2 2-2Z"/><circle cx="12" cy="13" r="3.5"/></symbol><symbol viewBox="0 0 24 24" id="carrot"><path d="M1 23q10-2 14-6a1 1 0 0 0-8-8q-4 4-6 14Zm3-9 2 2m9 1-3-3m3-13a1 1 0 0 0 8 8q-4-4-8 0 4-4 0-8Z"/></symbol><symbol viewBox="0 0 24 24" id="cart-shopping"><path d="M2 2h2l2.7 12.5A2 2 0 0 0 8.6 16h9.8a2 2 0 0 0 2-1.5L22 7H5.1"/><circle cx="8" cy="21" r="1"/><circle cx="19" cy="21" r="1"/></symbol><symbol viewBox="0 0 24 24" id="cassette-tape"><rect width="22" height="16" x="1" y="4" rx="3"/><circle cx="7" cy="10" r="1"/><circle cx="17" cy="10" r="1"/><path d="m5 20 2-4h10l2 4"/></symbol><symbol viewBox="0 0 24 24" id="chain"><path d="M14 7h3a1 1 0 0 1 0 10h-3m-4 0H7A1 1 0 0 1 7 7h3m-2 5h8"/></symbol><symbol viewBox="0 0 24 24" id="check"><path d="m5 12 5 5L20 7"/></symbol><symbol viewBox="0 0 24 24" id="check-double"><path d="m7 17-5-5m5 0 5 5L22 7m-10 5 5-5"/></symbol><symbol viewBox="0 0 24 24" id="chrome"><circle cx="12" cy="12" r="11"/><circle cx="12" cy="12" r="4"/><path d="M22.24 8H12M3.42 5.13 8.54 14m1.8 8.87L15.46 14"/></symbol><symbol viewBox="0 0 24 24" id="circle"><circle cx="12" cy="12" r="10"/></symbol><symbol viewBox="0 0 24 24" id="circle-check"><circle cx="12" cy="12" r="10"/><path d="m9 12 2 2 4-4"/></symbol><symbol viewBox="0 0 24 24" id="circle-exclamation"><circle cx="12" cy="12" r="10"/><path d="M12 8v4m0 4Z"/></symbol><symbol viewBox="0 0 24 24" id="circle-info"><circle cx="12" cy="12" r="10"/><path d="M12 8Zm0 4v4"/></symbol><symbol viewBox="0 0 24 24" id="circle-minus"><circle cx="12" cy="12" r="10"/><path d="M8 12h8"/></symbol><symbol viewBox="0 0 24 24" id="circle-plus"><circle cx="12" cy="12" r="10"/><path d="M16 12H8m4 4V8"/></symbol><symbol viewBox="0 0 24 24" id="circle-question"><circle cx="12" cy="12" r="10"/><path d="M9 10a3 3 0 1 1 3 3m0 4Z"/></symbol><symbol viewBox="0 0 24 24" id="circle-xmark"><circle cx="12" cy="12" r="10"/><path d="m15 9-6 6m0-6 6 6"/></symbol><symbol viewBox="0 0 24 24" id="clock"><circle cx="12" cy="12" r="10"/><path d="M12 6v6l4 2"/></symbol><symbol viewBox="0 0 24 24" id="cloud"><path d="M9 20a8 8 0 1 1 7.746-10H18a1 1 0 0 1 0 10Z"/></symbol><symbol viewBox="0 0 24 24" id="cloud-drizzle"><path d="M3 16.3A8 8 0 1 1 16.746 9H18a5 5 0 0 1 3 9M8 19v1m0-6v1m8 4v1m0-6v1m-4 6v1m0-6v1"/></symbol><symbol viewBox="0 0 24 24" id="cloud-lightning"><path d="m13 12-3 5h4l-3 5m-6-4.07A8 8 0 1 1 16.746 9H18a5 5 0 0 1 1 9.9"/></symbol><symbol viewBox="0 0 24 24" id="cloud-rain"><path d="M3 16.3A8 8 0 1 1 16.746 9H18a5 5 0 0 1 3 9m-5-4v6m-8-6v6m4-4v6"/></symbol><symbol viewBox="0 0 24 24" id="cloud-snow"><path d="M3 16.3A8 8 0 1 1 16.746 9H18a5 5 0 0 1 3 9M8 15Zm0 4Zm4-2Zm0 4Zm4-6Zm0 4Z"/></symbol><symbol viewBox="0 0 24 24" id="clover"><path d="m7.4 16.6 9.2-9.2A1 1 0 0 0 12 3a1 1 0 0 0-4.6 4.4A1 1 0 0 0 3 12a1 1 0 0 0 4.4 4.6A1 1 0 0 0 12 21a1 1 0 0 0 4.6-4.4A1 1 0 0 0 21 12a1 1 0 0 0-4.4-4.6m-9.2 0 9.2 9.2"/></symbol><symbol viewBox="0 0 24 24" id="code"><path d="m8 18-6-6 6-6m8 0 6 6-6 6"/></symbol><symbol viewBox="0 0 24 24" id="codepen"><path d="M12 8.5V2m0 13.5V22M2 8.5v7L12 22l10-6.5v-7L12 2Zl10 7 10-7m0 7-10-7-10 7"/></symbol><symbol viewBox="0 0 24 24" id="codesandbox"><path d="M3 21h18V3H3Z"/></symbol><symbol viewBox="0 0 24 24" id="coffee"><path d="M6 1v3m4-3v3m4-3v3m4 12h1a1 1 0 0 0 0-8H2v9a4 4 0 0 0 4 4h8a4 4 0 0 0 4-4zV8"/></symbol><symbol viewBox="0 0 24 24" id="coinbase"><path d="M21.8 10a10 10 0 1 0 0 4h-6.33a4 4 0 1 1 0-4Z"/></symbol><symbol viewBox="0 0 24 24" id="columns"><rect width="18" height="18" x="3" y="3" rx="2"/><path d="M12 21V3"/></symbol><symbol viewBox="0 0 24 24" id="columns-3"><rect width="22" height="18" x="1" y="3" rx="2"/><path d="M16 21V3M8 21V3"/></symbol><symbol viewBox="0 0 24 24" id="command"><path d="M9 6a3 3 0 1 0-3 3h12a3 3 0 1 0-3-3v12a3 3 0 1 0 3-3H6a3 3 0 1 0 3 3Z"/></symbol><symbol viewBox="0 0 24 24" id="comment"><path d="M7.88 20A9 9 0 1 0 4 16.12L2 22Z"/></symbol><symbol viewBox="0 0 24 24" id="comment-dots"><path d="M7.88 20A9 9 0 1 0 4 16.12L2 22ZM8 12Zm4 0Zm4 0Z"/></symbol><symbol viewBox="0 0 24 24" id="compact-disc"><path d="M6 12a6 6 0 0 1 6-6"/><circle cx="12" cy="12" r="10"/><circle cx="12" cy="12" r="2"/></symbol><symbol viewBox="0 0 24 24" id="compress"><path d="M3 8h5V3m8 0v5h5m-5 13v-5h5M3 16h5v5"/></symbol><symbol viewBox="0 0 24 24" id="cookie"><path d="M7 9Zm2 7Zm7 0Zm-3-3ZM12 2q0 5 5 5 0 5 5 5A10 10 0 1 1 12 2Z"/></symbol><symbol viewBox="0 0 24 24" id="copy"><path d="M5 15H4a2 2 0 0 1-2-2V4a2 2 0 0 1 2-2h9a2 2 0 0 1 2 2v1"/><rect width="13" height="13" x="9" y="9" rx="2"/></symbol><symbol viewBox="0 0 24 24" id="copyright"><circle cx="12" cy="12" r="9"/><path d="M14.6 8.96a4 4 0 1 0 0 6.08"/></symbol><symbol viewBox="0 0 24 24" id="crab"><path d="m21 22-2-2-2-1M3 22l2-2 2-1M23 8h-3a4 4 0 0 1-4-4h3V1a4 4 0 0 1 4 4v5a3 3 0 0 1-1.9 2.8L18 14m-2 9-1-2m8-3-2-1h-2M8 23l1-2m-8-3 2-1h2M1 8h3a4 4 0 0 0 4-4H5V1a4 4 0 0 0-4 4v5a3 3 0 0 0 1.9 2.8L6 14m8-5Zm-4 0Zm5 12H9l-4-4a5 5 0 0 1 5-5h4a5 5 0 0 1 5 5Z"/></symbol><symbol viewBox="0 0 24 24" id="credit-card"><rect width="22" height="16" x="1" y="4" rx="2"/><path d="M1 9h22M5 16h2m3 0h5"/></symbol><symbol viewBox="0 0 24 24" id="cross"><path d="M15 9h7v6h-7v7H9v-7H2V9h7V2h6Z"/></symbol><symbol viewBox="0 0 24 24" id="cube"><path d="M21 7v10l-9 5-9-5V7l9-5Zl-9 5-9-5m9 5v10"/></symbol><symbol viewBox="0 0 24 24" id="desktop"><rect width="22" height="15" x="1" y="3" rx="2"/><path d="M23 13H1m11 8v-3m5 3H7"/></symbol><symbol viewBox="0 0 24 24" id="deviantart"><path d="M5 18v4h4l2.5-4H19v-5h-4.4L19 6V2h-4l-2.5 4H5v5h4.4Z"/></symbol><symbol viewBox="0 0 24 24" id="devices"><path d="M13 16H1a3 3 0 0 0 3 3h9m-9-7V5a2 2 0 0 1 2-2h12a2 2 0 0 1 2 2v3"/><rect width="6" height="10" x="17" y="12" rx="2"/></symbol><symbol viewBox="0 0 24 24" id="dice"><rect width="18" height="18" x="3" y="3" rx="2"/><path d="M8 16Zm4-4Zm4-4Z"/></symbol><symbol viewBox="0 0 24 24" id="disc"><circle cx="12" cy="12" r="10"/><circle cx="12" cy="12" r="2"/></symbol><symbol viewBox="0 0 24 24" id="discord"><path d="m9 3 1 2q2-.5 4 0l1-2q2.5.5 5 2 3 5 3 12-2 2.5-6 4-1-1.5-1.5-3.5M17 17q-5 2-10 0m1.5.5Q8 19.5 7 21q-4-1.5-6-4 0-7 3-12 2.5-1.5 5-2"/><circle cx="8" cy="12" r="1"/><circle cx="16" cy="12" r="1"/></symbol><symbol viewBox="0 0 24 24" id="disqus"><path d="m2 22 .8-3.97a11 11 0 1 1 3.17 3.17ZM12 8a1 1 0 0 1 0 8H9V8Z"/></symbol><symbol viewBox="0 0 24 24" id="dollar"><path d="M17 5H9.5a3.5 3.5 0 0 0 0 7h5a3.5 3.5 0 0 1 0 7H6m6-17v20"/></symbol><symbol viewBox="0 0 24 24" id="download"><path d="M2 15v4a2 2 0 0 0 2 2h16a2 2 0 0 0 2-2v-4M12 3v12m5-5-5 5-5-5"/></symbol><symbol viewBox="0 0 24 24" id="download-cloud"><path d="M3 16.3A8 8 0 1 1 16.746 9H18a5 5 0 0 1 3 9m-9-5v8m-4-4 4 4 4-4"/></symbol><symbol viewBox="0 0 24 24" id="dribbble"><circle cx="12" cy="12" r="11"/><path d="M22.98 11.37Q11 10 6.85 21.72M19.55 4Q12 12 2.1 7.2m13.5 15.2Q21 8 7.2 2.1"/></symbol><symbol viewBox="0 0 24 24" id="droplet"><path d="m12 3 5 5q3 3 3 6a1 1 0 0 1-16 0q0-3 3-6Z"/></symbol><symbol viewBox="0 0 24 24" id="eclipse"><path d="M3 12a1 1 0 0 0 18 0 1 1 0 0 0-18 0Zm9-9a1 1 0 0 0 9 9"/></symbol><symbol viewBox="0 0 24 24" id="ellipsis"><circle cx="5" cy="12" r="1"/><circle cx="12" cy="12" r="1"/><circle cx="19" cy="12" r="1"/></symbol><symbol viewBox="0 0 24 24" id="ellipsis-vertical"><circle cx="12" cy="5" r="1"/><circle cx="12" cy="12" r="1"/><circle cx="12" cy="19" r="1"/></symbol><symbol viewBox="0 0 24 24" id="envelope"><rect width="20" height="16" x="2" y="4" rx="2"/><path d="m2 8 10 5 10-5"/></symbol><symbol viewBox="0 0 24 24" id="equals"><path d="M19 9H5m14 6H5"/></symbol><symbol viewBox="0 0 24 24" id="eraser"><path d="M13 21H7l-4-4a3 3 0 0 1 0-4l9-9a3 3 0 0 1 4 0l5 5a3 3 0 0 1 0 4Zh9M7 9l9 9"/></symbol><symbol viewBox="0 0 24 24" id="euro"><path d="M13 14H4m12-4H4m15 8a7.8 8 0 1 1 0-12"/></symbol><symbol viewBox="0 0 24 24" id="expand"><path d="M3 16v5h5m8 0h5v-5m0-8V3h-5M8 3H3v5"/></symbol><symbol viewBox="0 0 24 24" id="eye"><circle cx="12" cy="12" r="3"/><path d="M1 12q5 8 11 8t11-8q-5-8-11-8T1 12Z"/></symbol><symbol viewBox="0 0 24 24" id="eye-off"><path d="M6.1 6.11Q3.5 8 1 12q5 8 11 8 3 0 5.9-2.1m2.87-2.79Q22 13.6 23 12q-5-8-11-8-1 0-2.1.25M1 1l22 22M9.88 9.88a1 1 0 0 0 4.24 4.24"/></symbol><symbol viewBox="0 0 24 24" id="face-angry"><path d="M9 10Zm6 0Zm-1-1 2.5-1M10 9 7.5 8m.5 8a5 5 0 0 1 8 0"/><circle cx="12" cy="12" r="10"/></symbol><symbol viewBox="0 0 24 24" id="face-frown"><path d="M9 9Zm6 0Zm-7 7a5 5 0 0 1 8 0"/><circle cx="12" cy="12" r="10"/></symbol><symbol viewBox="0 0 24 24" id="face-laugh"><path d="M9 9Zm6 0Zm-9 4a6.1 6.1 0 0 0 12 0Z"/><circle cx="12" cy="12" r="10"/></symbol><symbol viewBox="0 0 24 24" id="face-meh"><path d="M9 9Zm6 0Zm-7 6h8"/><circle cx="12" cy="12" r="10"/></symbol><symbol viewBox="0 0 24 24" id="face-meh-blank"><path d="M9 9Zm6 0Z"/><circle cx="12" cy="12" r="10"/></symbol><symbol viewBox="0 0 24 24" id="face-smile"><path d="M9 9Zm6 0Zm-7 5a5 5 0 0 0 8 0"/><circle cx="12" cy="12" r="10"/></symbol><symbol viewBox="0 0 24 24" id="facebook"><path d="M18 10h-4V7q0-1 1-1h3V2h-3a5 5 0 0 0-5 5v3H7v4h3v8h4v-8h3Z"/></symbol><symbol viewBox="0 0 24 24" id="facebook-alt"><circle cx="12" cy="12" r="11"/><path d="M12 23V10a2.5 2.5 0 0 1 3-2.5M10 13h4.5"/></symbol><symbol viewBox="0 0 24 24" id="feather"><path d="M20 12.5A1 1 0 0 0 11.5 4L5 10.5V19h8.5ZM16 8 2 22m7-7h8.5"/></symbol><symbol viewBox="0 0 24 24" id="figma"><path d="M8.5 9a1 1 0 0 1 0-7h7a1 1 0 0 1 0 7za1 1 0 0 0 0 7H12 8.5a3.5 3.5 0 1 0 3.5 3.5V2"/><circle cx="15.5" cy="12.5" r="3.5"/></symbol><symbol viewBox="0 0 24 24" id="file"><path d="M14 2H6a2 2 0 0 0-2 2v16a2 2 0 0 0 2 2h12a2 2 0 0 0 2-2V8Zv6h6"/></symbol><symbol viewBox="0 0 24 24" id="file-minus"><path d="M14 2H6a2 2 0 0 0-2 2v16a2 2 0 0 0 2 2h12a2 2 0 0 0 2-2V8Zv6h6M9 15h6"/></symbol><symbol viewBox="0 0 24 24" id="file-plus"><path d="M14 2H6a2 2 0 0 0-2 2v16a2 2 0 0 0 2 2h12a2 2 0 0 0 2-2V8Zv6h6M9 15h6m-3 3v-6"/></symbol><symbol viewBox="0 0 24 24" id="file-search"><path d="M20 11V8l-6-6H6a2 2 0 0 0-2 2v16a2 2 0 0 0 2 2h5m3-20v6h6m1 14-3-3"/><circle cx="15.5" cy="16.5" r="3.5"/></symbol><symbol viewBox="0 0 24 24" id="file-text"><path d="M14 2H6a2 2 0 0 0-2 2v16a2 2 0 0 0 2 2h12a2 2 0 0 0 2-2V8Zv6h6M10 9H8m8 4H8m8 4H8"/></symbol><symbol viewBox="0 0 24 24" id="film"><rect width="18" height="18" x="3" y="3" rx="2"/><path d="M7 3v18M17 3v18M3 7.5h4m10 0h4M3 12h4m10 0h4M3 16.5h4m10 0h4"/></symbol><symbol viewBox="0 0 24 24" id="filter"><path d="M14 21v-8l8-10H2l8 10v5Z"/></symbol><symbol viewBox="0 0 24 24" id="fingerprint"><path d="M20 15q.5-3.5-.1-5.2M9 21q3-4 3-8m-6 5q2-3 2-6a1 1 0 0 1 8 0q0 3-1 6M3 15q1-2 1-4a8 8 0 0 1 14.4-4.8"/></symbol><symbol viewBox="0 0 24 24" id="fire"><path d="M7.8 9.4Q11 7 12 3q2.5 5 0 10 3 0 5-2.9a7 7 0 1 1-9.2-.7Z"/></symbol><symbol viewBox="0 0 24 24" id="fish"><path d="M1 17A4 4 0 0 0 1 7v2a3 3 0 0 0 3 3h2m0 0a8.95 8.95 0 0 0 17 0 8.95 8.95 0 0 0-17 0m-5 5v-2a3 3 0 0 1 3-3m15 0Zm-6.02 6.02L9 22h4a3 3 0 0 0 3-3V5a3 3 0 0 0-3-3H9l3.98 3.98"/></symbol><symbol viewBox="0 0 24 24" id="flipboard"><path d="M3 21h6v-6h6V9h6V3H3Z"/></symbol><symbol viewBox="0 0 24 24" id="floppy-disk"><path d="M16 3H5a2 2 0 0 0-2 2v14a2 2 0 0 0 2 2h14a2 2 0 0 0 2-2V8ZM7 3v5h8m2 13v-8H7v8"/></symbol><symbol viewBox="0 0 24 24" id="folder"><path d="M11 6h9a2 2 0 0 1 2 2v10a2 2 0 0 1-2 2H4a2 2 0 0 1-2-2V5a2 2 0 0 1 2-2h5Z"/></symbol><symbol viewBox="0 0 24 24" id="folder-minus"><path d="M11 6h9a2 2 0 0 1 2 2v10a2 2 0 0 1-2 2H4a2 2 0 0 1-2-2V5a2 2 0 0 1 2-2h5Zm-2 7h6"/></symbol><symbol viewBox="0 0 24 24" id="folder-plus"><path d="M11 6h9a2 2 0 0 1 2 2v10a2 2 0 0 1-2 2H4a2 2 0 0 1-2-2V5a2 2 0 0 1 2-2h5Zm1 4v6m-3-3h6"/></symbol><symbol viewBox="0 0 24 24" id="folder-search"><path d="M22 10V8a2 2 0 0 0-2-2h-9L9 3H4a2 2 0 0 0-2 2v13a2 2 0 0 0 2 2h8m10 0-3-3"/><circle cx="16.5" cy="14.5" r="3.5"/></symbol><symbol viewBox="0 0 24 24" id="forward"><path d="M2 19V5l9 7Zm11 0V5l9 7Z"/></symbol><symbol viewBox="0 0 24 24" id="forward-step"><path d="M15 12 5 4v16Zm4 7V5"/></symbol><symbol viewBox="0 0 24 24" id="gamepad"><rect width="22" height="14" x="1" y="5" rx="3"/><path d="M7 10v4m-2-2h4m6 1Zm3-2Z"/></symbol><symbol viewBox="0 0 24 24" id="gamepad-modern"><path d="M9 16h6a1 1 0 0 0 0-12H9a6 6 0 0 0-5.78 4.39l-2.13 7.88a3 3 0 0 0 5.09 2.79Zm6 0 2.82 3.06a3 3 0 0 0 5.09-2.79l-2.13-7.88M8 8v4m-2-2h4m5 0h2"/></symbol><symbol viewBox="0 0 24 24" id="gear"><circle cx="12" cy="12" r="3"/><path d="M10 21a1 1 0 0 0 4 0 1.8 1.8 0 0 1 2.95-1.22 1 1 0 0 0 2.83-2.83A1.8 1.8 0 0 1 21 14a1 1 0 0 0 0-4 1.8 1.8 0 0 1-1.22-2.95 1 1 0 0 0-2.83-2.83A1.8 1.8 0 0 1 14 3a1 1 0 0 0-4 0 1.8 1.8 0 0 1-2.95 1.22 1 1 0 0 0-2.83 2.83A1.8 1.8 0 0 1 3 10a1 1 0 0 0 0 4 1.8 1.8 0 0 1 1.22 2.95 1 1 0 0 0 2.83 2.83A1.8 1.8 0 0 1 10 21Z"/></symbol><symbol viewBox="0 0 24 24" id="gear-alt"><circle cx="12" cy="12" r="8"/><path d="M1 12h2m9 0h11M12 1v2m0 18v2m-9.53-5.5 1.74-1M6.5 2.47 12 12m9.53-5.5-1.74 1M16.5 19.79l1 1.74m-11 0L12 12M2.47 6.5l1.74 1M17.5 2.47l-1 1.74m3.29 12.29 1.74 1"/></symbol><symbol viewBox="0 0 24 24" id="get-pocket"><path d="m8 10 4 4 4-4m4-7a2 2 0 0 1 2 2v6a1 1 0 0 1-20 0V5a2 2 0 0 1 2-2Z"/></symbol><symbol viewBox="0 0 24 24" id="ghost"><path d="M9 11Zm6 0ZM3 21q0 2 1.5 0t3 0 3 0 3 0 3 0 3 0 1.5 0V11a1 1 0 0 0-18 0Z"/></symbol><symbol viewBox="0 0 24 24" id="gift"><rect width="20" height="5" x="2" y="7" rx="1"/><path d="M12 22V7q2-5 5-5a1 1 0 0 1 0 5H7a1 1 0 0 1 0-5q3 0 5 5m-8 5v10h16V12"/></symbol><symbol viewBox="0 0 24 24" id="git-branch"><circle cx="6" cy="5" r="3"/><circle cx="6" cy="19" r="3"/><circle cx="18" cy="12" r="3"/><path d="M9 19q5 0 7.5-4.4M6 8v8"/></symbol><symbol viewBox="0 0 24 24" id="git-commit"><circle cx="12" cy="12" r="3"/><path d="M1 12h8m6 0h8"/></symbol><symbol viewBox="0 0 24 24" id="git-compare"><circle cx="6" cy="5" r="3"/><circle cx="18" cy="19" r="3"/><path d="M6 8v8a2 2 0 0 0 2 2h3m2-12h3a2 2 0 0 1 2 2v8"/></symbol><symbol viewBox="0 0 24 24" id="git-fork"><circle cx="6" cy="5" r="3"/><circle cx="18" cy="5" r="3"/><circle cx="12" cy="19" r="3"/><path d="M12 12v4M6 8v2a2 2 0 0 0 2 2h8a2 2 0 0 0 2-2V8"/></symbol><symbol viewBox="0 0 24 24" id="git-merge"><circle cx="6" cy="5" r="3"/><circle cx="6" cy="19" r="3"/><circle cx="18" cy="12" r="3"/><path d="M6 16V8q3 4 9 4"/></symbol><symbol viewBox="0 0 24 24" id="git-pull"><circle cx="6" cy="5" r="3"/><circle cx="6" cy="19" r="3"/><circle cx="18" cy="19" r="3"/><path d="M6 8v8m7-10h3a2 2 0 0 1 2 2v8"/></symbol><symbol viewBox="0 0 24 24" id="git-pull-closed"><circle cx="6" cy="5" r="3"/><circle cx="6" cy="19" r="3"/><circle cx="18" cy="19" r="3"/><path d="M6 8v8m12-5v5M15 2l6 6m0-6-6 6"/></symbol><symbol viewBox="0 0 24 24" id="git-pull-create"><circle cx="6" cy="5" r="3"/><circle cx="6" cy="19" r="3"/><path d="M6 8v8m7-10h3a2 2 0 0 1 2 2v4m0 4v6m-3-3h6"/></symbol><symbol viewBox="0 0 24 24" id="git-pull-draft"><circle cx="6" cy="5" r="3"/><circle cx="6" cy="19" r="3"/><circle cx="18" cy="19" r="3"/><path d="M6 8v8m12-6v1m0-7v1"/></symbol><symbol viewBox="0 0 24 24" id="github"><path d="M9 22v-3q0-2 1-3A7 6.5 0 0 1 5 5Q4 3 5 1q3 0 4 2 3-1 6 0 2-2 4-2 1 2 0 4a7 6.5 0 0 1-5 11q1 1 1 3v3M2 17c2 0 3 4 7 2"/></symbol><symbol viewBox="0 0 24 24" id="github-copilot"><path d="M6 4c-4 2-3.2 8.4 2 7.5S14 0 6 4m12 0c4 2 3.2 8.4-2 7.5S10 0 18 4M4 10q-1 1-1 2v6m17-8q1 1 1 2v6M3 12q-2 0-2 3t2 3m18-6q2 0 2 3t-2 3q-9 6-18 0m7-3v2m4-2v2"/></symbol><symbol viewBox="0 0 24 24" id="gitlab"><path d="M1 14 5 2l3 8h8l3-8 4 12-11 8Z"/></symbol><symbol viewBox="0 0 24 24" id="globe"><circle cx="12" cy="12" r="10"/><path d="M12 2a15 15 0 0 1 0 20 15 15 0 0 1 0-20Zm10 10H2"/></symbol><symbol viewBox="0 0 24 24" id="google"><path d="M19.041 3.549A11 11 0 1 0 22.817 10H12v4h6.708a7 7 0 1 1-2.227-7.378Z"/></symbol><symbol viewBox="0 0 24 24" id="google-drive"><path d="m8.5 3 7 12m7 0h-14M12 9 5 21m0 0h14l3.5-6-7-12h-7l-7 12Z"/></symbol><symbol viewBox="0 0 24 24" id="google-gemini"><path d="M12 1Q9 9 1 12q8 3 11 11 3-8 11-11-8-3-11-11ZM5 14q7-2 9-9m-9 5q7 2 9 9"/></symbol><symbol viewBox="0 0 24 24" id="google-play"><path d="M15.92 7.56 3 20Zm0 8.88L3 4m18 6.27a2 2 0 0 1 0 3.46L5.95 21.76A2 2 0 0 1 3 20V4a2 2 0 0 1 2.95-1.76Z"/></symbol><symbol viewBox="0 0 24 24" id="grid"><rect width="7" height="7" x="3" y="3" rx="1"/><rect width="7" height="7" x="14" y="3" rx="1"/><rect width="7" height="7" x="3" y="14" rx="1"/><rect width="7" height="7" x="14" y="14" rx="1"/></symbol><symbol viewBox="0 0 24 24" id="grid-dots"><circle cx="5" cy="5" r="1"/><circle cx="12" cy="5" r="1"/><circle cx="19" cy="5" r="1"/><circle cx="5" cy="12" r="1"/><circle cx="12" cy="12" r="1"/><circle cx="19" cy="12" r="1"/><circle cx="5" cy="19" r="1"/><circle cx="12" cy="19" r="1"/><circle cx="19" cy="19" r="1"/></symbol><symbol viewBox="0 0 24 24" id="grid-masonry"><rect width="7" height="9" x="3" y="3" rx="1"/><rect width="7" height="5" x="14" y="3" rx="1"/><rect width="7" height="5" x="3" y="16" rx="1"/><rect width="7" height="9" x="14" y="12" rx="1"/></symbol><symbol viewBox="0 0 24 24" id="grid-minus"><rect width="7" height="7" x="3" y="3" rx="1"/><rect width="7" height="7" x="14" y="3" rx="1"/><rect width="7" height="7" x="3" y="14" rx="1"/><path d="M14 17.5h7"/></symbol><symbol viewBox="0 0 24 24" id="grid-panel-bottom"><rect width="7" height="7" x="3" y="3" rx="1"/><rect width="7" height="7" x="14" y="3" rx="1"/><rect width="18" height="7" x="3" y="14" rx="1"/></symbol><symbol viewBox="0 0 24 24" id="grid-panel-left"><rect width="7" height="18" x="3" y="3" rx="1"/><rect width="7" height="7" x="14" y="3" rx="1"/><rect width="7" height="7" x="14" y="14" rx="1"/></symbol><symbol viewBox="0 0 24 24" id="grid-panel-right"><rect width="7" height="7" x="3" y="3" rx="1"/><rect width="7" height="18" x="14" y="3" rx="1"/><rect width="7" height="7" x="3" y="14" rx="1"/></symbol><symbol viewBox="0 0 24 24" id="grid-panel-top"><rect width="18" height="7" x="3" y="3" rx="1"/><rect width="7" height="7" x="3" y="14" rx="1"/><rect width="7" height="7" x="14" y="14" rx="1"/></symbol><symbol viewBox="0 0 24 24" id="grid-plus"><rect width="7" height="7" x="3" y="3" rx="1"/><rect width="7" height="7" x="14" y="3" rx="1"/><rect width="7" height="7" x="3" y="14" rx="1"/><path d="M14 17.5h7M17.5 14v7"/></symbol><symbol viewBox="0 0 24 24" id="grid-remove"><rect width="7" height="7" x="3" y="3" rx="1"/><rect width="7" height="7" x="14" y="3" rx="1"/><rect width="7" height="7" x="3" y="14" rx="1"/><path d="m15 15 5 5m0-5-5 5"/></symbol><symbol viewBox="0 0 24 24" id="grip"><circle cx="5" cy="5" r="1"/><circle cx="12" cy="5" r="1"/><circle cx="19" cy="5" r="1"/><circle cx="5" cy="12" r="1"/><circle cx="12" cy="12" r="1"/><circle cx="19" cy="12" r="1"/><circle cx="5" cy="19" r="1"/><circle cx="12" cy="19" r="1"/><circle cx="19" cy="19" r="1"/></symbol><symbol viewBox="0 0 24 24" id="grip-horizontal"><circle cx="5" cy="9" r="1"/><circle cx="12" cy="9" r="1"/><circle cx="19" cy="9" r="1"/><circle cx="5" cy="15" r="1"/><circle cx="12" cy="15" r="1"/><circle cx="19" cy="15" r="1"/></symbol><symbol viewBox="0 0 24 24" id="grip-vertical"><circle cx="9" cy="5" r="1"/><circle cx="9" cy="12" r="1"/><circle cx="9" cy="19" r="1"/><circle cx="15" cy="5" r="1"/><circle cx="15" cy="12" r="1"/><circle cx="15" cy="19" r="1"/></symbol><symbol viewBox="0 0 24 24" id="gumroad"><circle cx="20" cy="4" r="2"/><circle cx="15" cy="16" r="2"/><path d="M18 4H5a2 2 0 0 0-2 2v14a2 2 0 0 0 2 2h14a2 2 0 0 0 2-2v-8a2 2 0 0 0-2-2h-8a2 2 0 0 0-2 2v2a2 2 0 0 0 2 2h2"/></symbol><symbol viewBox="0 0 24 24" id="headphones"><path d="M21 14h-3a2 2 0 0 0-2 2v3a2 2 0 0 0 2 2h1a2 2 0 0 0 2-2v-7a1 1 0 0 0-18 0v7a2 2 0 0 0 2 2h1a2 2 0 0 0 2-2v-3a2 2 0 0 0-2-2H3"/></symbol><symbol viewBox="0 0 24 24" id="heart"><path d="m12 21.5-8.8-8.7A5.6 5.6 0 1 1 12 6a5.6 5.6 0 1 1 8.8 6.8Z"/></symbol><symbol viewBox="0 0 24 24" id="hexagon"><path d="M2.5 6.5v11L12 23l9.5-5.5v-11L12 1Z"/></symbol><symbol viewBox="0 0 24 24" id="home"><path d="M10.7 2.48a2 2 0 0 1 2.6 0l7 6A2 2 0 0 1 21 10v9a2 2 0 0 1-2 2H5a2 2 0 0 1-2-2v-9a2 2 0 0 1 .7-1.52ZM9 21v-8h6v8"/></symbol><symbol viewBox="0 0 24 24" id="hugo"><path d="m12 1 9.5 5.5v11L12 23l-9.5-5.5v-11ZM9 8v8m0-4h6m0-4v8"/></symbol><symbol viewBox="0 0 24 24" id="image"><rect width="18" height="18" x="3" y="3" rx="2"/><circle cx="15" cy="9" r="2"/><path d="m3 18 6-6 9 9"/></symbol><symbol viewBox="0 0 24 24" id="images"><rect width="14" height="14" x="8" y="2" rx="2"/><circle cx="17" cy="7" r="1"/><path d="M4 8a2 2 0 0 0-2 2v10a2 2 0 0 0 2 2h10a2 2 0 0 0 2-2m-8-7 4-4 7 7"/></symbol><symbol viewBox="0 0 24 24" id="incognito"><path d="M10 18h4M2 11h20M5 11q1-5 2-7t5 0 5 0 2 7"/><circle cx="17" cy="18" r="3"/><circle cx="7" cy="18" r="3"/></symbol><symbol viewBox="0 0 24 24" id="indent"><path d="M9 6h12m-8 6h8M9 18h12M3 8l4 4-4 4"/></symbol><symbol viewBox="0 0 24 24" id="instagram"><circle cx="12" cy="12" r="4"/><rect width="20" height="20" x="2" y="2" rx="5"/><path d="M17.5 6.5Z"/></symbol><symbol viewBox="0 0 24 24" id="key"><circle cx="8" cy="16" r=".5"/><path d="M18 2h4v5h-3v3h-3v2l-2.26 2.26a6 6 0 1 1-4-4Z"/></symbol><symbol viewBox="0 0 24 24" id="key-skeleton"><path d="m20 9-3-3m6 0-3-3-9 9"/><circle cx="7" cy="16" r="5.5"/></symbol><symbol viewBox="0 0 24 24" id="language"><path d="M2 5h14M9 2v3m4 0q-2 8-9 11m2-7q2 4 6 6m1 7 5-11 5 11m-1.37-3h-7.26"/></symbol><symbol viewBox="0 0 24 24" id="laptop"><path d="M4 13V6a2 2 0 0 1 2-2h12a2 2 0 0 1 2 2v7m3 4a3 3 0 0 1-3 3H4a3 3 0 0 1-3-3Z"/></symbol><symbol viewBox="0 0 24 24" id="laravel"><path d="m14 10.8 4.5 2.5M5.5 1 1 3.5V18l9 5 8.5-4.72V8.3L23 5.8v5L10 18l-4.5-2.5V6L10 3.5ZM1 3.5 5.5 6m0 9.5 8.5-4.7v-5l4.5-2.5L23 5.8M10 3.5V13m4-7.2 4.5 2.5M10 18v5"/></symbol><symbol viewBox="0 0 24 24" id="layout"><rect width="18" height="18" x="3" y="3" rx="2"/><path d="M12 3v18m9-9H3"/></symbol><symbol viewBox="0 0 24 24" id="layout-masonry"><rect width="18" height="18" x="3" y="3" rx="2"/><path d="M12 3v18m0-6H3m9-6h9"/></symbol><symbol viewBox="0 0 24 24" id="layout-minus"><path d="M16 19h6M3 12h18V5a2 2 0 0 0-2-2H5a2 2 0 0 0-2 2v14a2 2 0 0 0 2 2h7V3"/></symbol><symbol viewBox="0 0 24 24" id="layout-panel-bottom"><rect width="18" height="18" x="3" y="3" rx="2"/><path d="M3 14h18"/></symbol><symbol viewBox="0 0 24 24" id="layout-panel-left"><rect width="18" height="18" x="3" y="3" rx="2"/><path d="M10 3v18"/></symbol><symbol viewBox="0 0 24 24" id="layout-panel-right"><rect width="18" height="18" x="3" y="3" rx="2"/><path d="M14 3v18"/></symbol><symbol viewBox="0 0 24 24" id="layout-panel-top"><rect width="18" height="18" x="3" y="3" rx="2"/><path d="M3 10h18"/></symbol><symbol viewBox="0 0 24 24" id="layout-plus"><path d="M16 19h6m-3-3v6M3 12h18V5a2 2 0 0 0-2-2H5a2 2 0 0 0-2 2v14a2 2 0 0 0 2 2h7V3"/></symbol><symbol viewBox="0 0 24 24" id="layout-remove"><path d="M3 12h18V5a2 2 0 0 0-2-2H5a2 2 0 0 0-2 2v14a2 2 0 0 0 2 2h7V3m5 14 4 4m0-4-4 4"/></symbol><symbol viewBox="0 0 24 24" id="leaf"><path d="M2 21q0-5 5-6t6-3m6-10q-2 4-8 4a1 1 0 0 0 0 14 10 11 0 0 0 8-18"/></symbol><symbol viewBox="0 0 24 24" id="link"><path d="M9 13a5 5 0 0 0 8 1l4-4a1 1 0 0 0-7-7l-2 2m3 6a5 5 0 0 0-8-1l-4 4a1 1 0 0 0 7 7l2-2"/></symbol><symbol viewBox="0 0 24 24" id="linkedin"><circle cx="4" cy="4" r="2"/><path d="M22 14a6 6 0 0 0-12 0v7h4v-7a2 2 0 0 1 4 0v7h4ZM2 21h4V9H2Z"/></symbol><symbol viewBox="0 0 24 24" id="list"><path d="M21 19H8m13-7H8m13-7H8M3 19Zm0-7Zm0-7Z"/></symbol><symbol viewBox="0 0 24 24" id="list-music"><path d="M5 13H2m9-5H2m9-5H2m14 15V3h6v5h-6"/><circle cx="12" cy="18" r="4"/></symbol><symbol viewBox="0 0 24 24" id="location"><path d="M20 10a1 1 0 0 0-16 0q0 6 8 12 8-6 8-12"/></symbol><symbol viewBox="0 0 24 24" id="location-crosshairs"><path d="M12 19v3m0-20v3M2 12h3m14 0h3"/><circle cx="12" cy="12" r="7"/><circle cx="12" cy="12" r="3"/></symbol><symbol viewBox="0 0 24 24" id="location-dot"><circle cx="12" cy="10" r="3"/><path d="M20 10a1 1 0 0 0-16 0q0 6 8 12 8-6 8-12"/></symbol><symbol viewBox="0 0 24 24" id="lock"><path d="M17 10V7A5 5 0 0 0 7 7v3"/><rect width="18" height="12" x="3" y="10" rx="2"/></symbol><symbol viewBox="0 0 24 24" id="map"><path d="M15 21V6M9 18V3m0 0 6 3 6-3v15l-6 3-6-3-6 3V6Z"/></symbol><symbol viewBox="0 0 24 24" id="mega"><circle cx="12" cy="12" r="11"/><path d="M7 15V9l5 5 5-5v6"/></symbol><symbol viewBox="0 0 24 24" id="message"><path d="M6 19h14a2 2 0 0 0 2-2V5a2 2 0 0 0-2-2H4a2 2 0 0 0-2 2v17Z"/></symbol><symbol viewBox="0 0 24 24" id="message-dots"><path d="M8 11Zm4 0Zm4 0ZM6 19h14a2 2 0 0 0 2-2V5a2 2 0 0 0-2-2H4a2 2 0 0 0-2 2v17Z"/></symbol><symbol viewBox="0 0 24 24" id="meta"><path d="M2 9c-2 5-1 10 2 10s5-3 8-9.5S20 4 22 9s1 10-2 10-5-3-8-9.5S4 4 2 9Z"/></symbol><symbol viewBox="0 0 24 24" id="meteor"><circle cx="10" cy="14" r="3.5"/><path d="m17 10 5-5m-6-1 2-2m-5 5zM7.88 4.81 4.34 8.34M22 13.31l-6.34 6.35M4.34 8.34a1 1 0 0 0 11.32 11.32"/></symbol><symbol viewBox="0 0 24 24" id="microchip"><rect width="16" height="16" x="4" y="4" rx="2"/><path d="M9 9h6v6H9zm0-8v3m6-3v3M9 20v3m6-3v3m5-14h3m-3 5h3M1 9h3m-3 5h3"/></symbol><symbol viewBox="0 0 24 24" id="microphone"><path d="M5 12a1 1 0 0 0 14 0m-7 7v3M9 12a1 1 0 0 0 6 0V5a1 1 0 0 0-6 0Z"/></symbol><symbol viewBox="0 0 24 24" id="microsoft"><path d="M3 3h18v18H3Zm9 0v18m9-9H3"/></symbol><symbol viewBox="0 0 24 24" id="minus"><path d="M5 12h14"/></symbol><symbol viewBox="0 0 24 24" id="mobile"><rect width="14" height="20" x="5" y="2" rx="2" ry="2"/><path d="M12 18Z"/></symbol><symbol viewBox="0 0 24 24" id="moon"><path d="M21 12a9 9 0 1 1-9-9 1 1 0 0 0 9 9Z"/></symbol><symbol viewBox="0 0 24 24" id="move-down"><path d="m8 18 4 4 4-4M12 2v20"/></symbol><symbol viewBox="0 0 24 24" id="move-left"><path d="M22 12H2m4 4-4-4 4-4"/></symbol><symbol viewBox="0 0 24 24" id="move-right"><path d="M22 12H2m16 4 4-4-4-4"/></symbol><symbol viewBox="0 0 24 24" id="move-up"><path d="m8 6 4-4 4 4m-4-4v20"/></symbol><symbol viewBox="0 0 24 24" id="music"><path d="M22 16V2L9 4v14"/><circle cx="5" cy="18" r="4"/><circle cx="18" cy="16" r="4"/></symbol><symbol viewBox="0 0 24 24" id="music-note"><path d="M12 8h6V3h-6v14"/><circle cx="8" cy="17" r="4"/></symbol><symbol viewBox="0 0 24 24" id="newspaper"><path d="M2 8v12a2 2 0 0 0 4 0V4a2 2 0 0 1 2-2h12a2 2 0 0 1 2 2v16a2 2 0 0 1-2 2H4m14-12h-8V6h8Zm-8 4h8m-8 4h4"/></symbol><symbol viewBox="0 0 24 24" id="nextjs"><circle cx="12" cy="12" r="11"/><path d="M1 12a1 1 0 0 1 22 0 1 1 0 0 1-22 0m14-1V8m3.6 12.8L9 8v8"/></symbol><symbol viewBox="0 0 24 24" id="open-source"><path d="M16.01 21.16a10 10 0 1 0-8.02 0l2.33-6.09a3.5 3.5 0 1 1 3.36 0Z"/></symbol><symbol viewBox="0 0 24 24" id="openai"><path d="m12 9.5 6 3.5v5a4 4 240 0 1-7.56 1.83m3.725-9.08-.031 6.946-4.33 2.5a4 4 240 0 1-5.365-5.632m9.726-1.314-6.031 3.446-4.33-2.5a4 4 240 0 1 2.195-7.462M12 14.5 6 11V6a4 4 240 0 1 7.56-1.83m-3.725 9.08.031-6.946 4.33-2.5a4 4 240 0 1 5.365 5.632M9.835 10.75l6.031-3.446 4.33 2.5a4 4 240 0 1-2.195 7.462"/></symbol><symbol viewBox="0 0 24 24" id="outdent"><path d="M15 6h6m-10 6h10m-6 6h6M7 8l-4 4 4 4"/></symbol><symbol viewBox="0 0 24 24" id="paint-roller"><rect width="16" height="6" x="3" y="2" rx="2"/><rect width="4" height="6" x="9" y="16" rx="1"/><path d="M19 5h1a2 2 0 0 1 2 2v3a2 2 0 0 1-2 2h-7a2 2 0 0 0-2 2v2"/></symbol><symbol viewBox="0 0 24 24" id="paintbrush"><path d="M3 14v4h7v2a1 1 0 0 0 4 0v-2h7v-4ZM9 2v6m6-6v3M4 14V2h16v12"/></symbol><symbol viewBox="0 0 24 24" id="palette"><circle cx="14" cy="7.5" r=".5"/><circle cx="9.1" cy="8" r=".5"/><circle cx="7" cy="12.5" r=".5"/><path d="M12 22q3 0 2-3t3.5-3 4.5-4a10 10 0 1 0-10 10Z"/></symbol><symbol viewBox="0 0 24 24" id="paper-plane"><path d="m22 2-7 20-4-9-9-4ZL11 13"/></symbol><symbol viewBox="0 0 24 24" id="paperclip"><path d="m16 6-8.49 8.49a1 1 0 0 0 2.83 2.82l8.49-8.48a1 1 0 0 0-5.66-5.66l-8.48 8.49a1 1 0 0 0 8.48 8.48l8.49-8.48"/></symbol><symbol viewBox="0 0 24 24" id="patreon"><path d="M7.5 22C3 22 3 14 3 11s1-9 9-9 9 4 9 6-1 5-6 6-3 8-7.5 8Z"/></symbol><symbol viewBox="0 0 24 24" id="pause"><path d="M5 3h5v18H5Zm9 0h5v18h-5Z"/></symbol><symbol viewBox="0 0 24 24" id="paw"><circle cx="4" cy="8" r="2"/><circle cx="12" cy="4" r="2"/><circle cx="20" cy="8" r="2"/><path d="M5 16a1 1 0 0 0 5 5q2-2 4 0a1 1 0 0 0 5-5l-3-3q-4-4-8 0Z"/></symbol><symbol viewBox="0 0 24 24" id="paypal"><path d="m6 22 4-16h7a1 1 0 0 1 0 11h-4.75L11 22Zm1-4H2L6 2h7a1 1 0 0 1 0 11H8.25"/></symbol><symbol viewBox="0 0 24 24" id="pencil"><path d="M16.95 2.81a1 1 0 0 1 4.24 4.24L7.76 20.49 2 22l1.51-5.76ZM13 21h8"/></symbol><symbol viewBox="0 0 24 24" id="pexels"><path d="M7 12H1v5h6v6h5v-6h3a8 8 0 1 0-8-8Zm5 0V9a3 3 0 1 1 3 3Z"/></symbol><symbol viewBox="0 0 24 24" id="pin"><path d="M7 2h10m-2 0v7q4 2 4 6v3H5v-3q0-4 4-6V2m3 20v-9"/></symbol><symbol viewBox="0 0 24 24" id="pinterest"><circle cx="12" cy="12" r="11"/><path d="M8.06 22.27 11 11a1 1 0 0 0 5.09 5.39A6 6 0 1 0 6 12"/></symbol><symbol viewBox="0 0 24 24" id="play"><path d="m6 3 15 9-15 9Z"/></symbol><symbol viewBox="0 0 24 24" id="plug"><path d="M8 2v5m8-5v5M5 7v3a1 1 0 0 0 14 0V7Zm7 10v5"/></symbol><symbol viewBox="0 0 24 24" id="plus"><path d="M19 12H5m7 7V5"/></symbol><symbol viewBox="0 0 24 24" id="power"><path d="M12 12V2m6.7 5A9 9 0 1 1 5.3 7"/></symbol><symbol viewBox="0 0 24 24" id="quote-left"><path d="M5 13h5v5H5v-7a4 5 0 0 1 4-5m5 7h5v5h-5v-7a4 5 0 0 1 4-5"/></symbol><symbol viewBox="0 0 24 24" id="quote-right"><path d="M15 18a4 5 0 0 0 4-5V6h-5v5h5M6 18a4 5 0 0 0 4-5V6H5v5h5"/></symbol><symbol viewBox="0 0 24 24" id="radio"><circle cx="12" cy="12" r="2"/><path d="M5 4.86a10 10 0 0 0 0 14.28M7.8 7.71a6 6 0 0 0 0 8.58m8.4 0a6 6 0 0 0 0-8.58M19 19.14a10 10 0 0 0 0-14.28"/></symbol><symbol viewBox="0 0 24 24" id="reddit"><circle cx="20" cy="5" r="2"/><path d="M5 10.5a14 14 0 0 1 14 0 1 1 0 0 1 2.5 4 9.6 6.6 0 1 1-19 0 1 1 0 0 1 2.5-4Zm7-1.88 1.5-6.12 4.65 1.74M10 18q2 1 4 0m-5-4Zm6 0Z"/></symbol><symbol viewBox="0 0 24 24" id="refresh"><path d="M16 8h5V3m0 5-2-2q-3-3-7-3a9 9 0 0 0-9 9m0 9v-5h5m-5 0 2 2q3 3 7 3a9 9 0 0 0 9-9"/></symbol><symbol viewBox="0 0 24 24" id="rhombus"><path d="M2.1 13.41a2 2-135 0 1 0-2.82l8.49-8.49a2 2-135 0 1 2.82 0l8.49 8.49a2 2-135 0 1 0 2.82l-8.49 8.49a2 2-135 0 1-2.82 0Z"/></symbol><symbol viewBox="0 0 24 24" id="robot"><rect width="20" height="14" x="2" y="9" rx="4"/><circle cx="12" cy="3" r="2"/><circle cx="9" cy="16" r=".5"/><circle cx="15" cy="16" r=".5"/><path d="M12 9V5"/></symbol><symbol viewBox="0 0 24 24" id="rotate"><path d="M16 8h5V3m0 5-2-2q-3-3-7-3a9 9 0 1 0 9 9"/></symbol><symbol viewBox="0 0 24 24" id="rows"><rect width="18" height="18" x="3" y="3" rx="2"/><path d="M3 12h18"/></symbol><symbol viewBox="0 0 24 24" id="rows-3"><rect width="18" height="22" x="3" y="1" rx="2"/><path d="M3 8h18M3 16h18"/></symbol><symbol viewBox="0 0 24 24" id="rss"><path d="M4 11a9 9 0 0 1 9 9M4 4a16 16 0 0 1 16 16"/><circle cx="5" cy="19" r="1"/></symbol><symbol viewBox="0 0 24 24" id="search"><circle cx="10" cy="10" r="7"/><path d="m21 21-6.05-6.05"/></symbol><symbol viewBox="0 0 24 24" id="share"><circle cx="18" cy="5" r="3"/><circle cx="6" cy="12" r="3"/><circle cx="18" cy="19" r="3"/><path d="m8.6 10.5 6.8-4m0 11-6.8-4"/></symbol><symbol viewBox="0 0 24 24" id="shield"><path d="M20 5v7q0 6-8 10-8-4-8-10V5l8-3Z"/></symbol><symbol viewBox="0 0 24 24" id="shopping-bag"><path d="M3 7v11a4 4 0 0 0 4 4h10a4 4 0 0 0 4-4V7Zm13 3V6a4 4 0 0 0-8 0v4"/></symbol><symbol viewBox="0 0 24 24" id="shrimp"><path d="M10 11Zm2 10h4l-4-2m2-16H3a1 1 0 0 0 0 4h13a1 1 0 0 1 0 14 1 1 0 0 0 0-5h-5a8 8 0 0 1-8-8V7m12 0v9m2.2.3 5.2-5.1"/></symbol><symbol viewBox="0 0 24 24" id="shuffle"><path d="m19 3 3 3-3 3m0 12 3-3-3-3M2 6h4l10 12h6M2 18h4l2-2.4m6-7.2L16 6h6"/></symbol><symbol viewBox="0 0 24 24" id="skull"><circle cx="8" cy="11" r="1"/><circle cx="16" cy="11" r="1"/><path d="M18 18a10 8.9 0 1 0-12 0v4h12Zm-8 1v3m4-3v3"/></symbol><symbol viewBox="0 0 24 24" id="soundcloud"><path d="M14 6a6 6 0 0 1 6 6 1 1 0 0 1 0 6h-6ZM5 18v-8m-3 4v3m6-6v7m3 0V7"/></symbol><symbol viewBox="0 0 24 24" id="sparkle"><path d="M2 12q9-1 10-10 1 9 10 10-9 1-10 10-1-9-10-10Z"/></symbol><symbol viewBox="0 0 24 24" id="sparkles"><path d="M7 12q7 1 8 8 1-7 8-8-7-1-8-8-1 7-8 8zM4 2v6M1 5h6M4 16v6m-3-3h6"/></symbol><symbol viewBox="0 0 24 24" id="spotify"><circle cx="12" cy="12" r="11"/><path d="M6 8q7-2 12 1M7 12q5.5-1.5 10 1m-9 3q4.5-1.5 8 1"/></symbol><symbol viewBox="0 0 24 24" id="square"><rect width="18" height="18" x="3" y="3" rx="2"/></symbol><symbol viewBox="0 0 24 24" id="square-check"><rect width="18" height="18" x="3" y="3" rx="2"/><path d="m9 12 2 2 4-4"/></symbol><symbol viewBox="0 0 24 24" id="square-exclamation"><rect width="18" height="18" x="3" y="3" rx="2"/><path d="M12 8v4m0 4Z"/></symbol><symbol viewBox="0 0 24 24" id="square-info"><rect width="18" height="18" x="3" y="3" rx="2"/><path d="M12 8Zm0 4v4"/></symbol><symbol viewBox="0 0 24 24" id="square-minus"><rect width="18" height="18" x="3" y="3" rx="2"/><path d="M8 12h8"/></symbol><symbol viewBox="0 0 24 24" id="square-plus"><rect width="18" height="18" x="3" y="3" rx="2"/><path d="M16 12H8m4 4V8"/></symbol><symbol viewBox="0 0 24 24" id="square-question"><rect width="18" height="18" x="3" y="3" rx="2"/><path d="M9 10a3 3 0 1 1 3 3m0 4Z"/></symbol><symbol viewBox="0 0 24 24" id="square-xmark"><rect width="18" height="18" x="3" y="3" rx="2"/><path d="m15 9-6 6m0-6 6 6"/></symbol><symbol viewBox="0 0 24 24" id="star"><path d="m12 1.5 2.939 6.455 7.047.8-5.231 4.79 1.417 6.95L12 17l-6.172 3.495 1.417-6.95-5.231-4.79 7.047-.8Z"/></symbol><symbol viewBox="0 0 24 24" id="sterling"><path d="M16 13H6m12 8H6m4 0V7a1 1 0 0 1 8 0"/></symbol><symbol viewBox="0 0 24 24" id="sticker"><path d="M9 9Zm6 0Zm-7 5a5 5 0 0 0 7 1m7-1h-4.5a3.5 3.5 0 0 0-3.5 3.5V22m8-7V6a4 4 0 0 0-4-4H6a4 4 0 0 0-4 4v12a4 4 0 0 0 4 4h9Z"/></symbol><symbol viewBox="0 0 24 24" id="sun"><circle cx="12" cy="12" r="4"/><path d="m6.34 17.66-1.41 1.41M19.07 4.93l-1.41 1.41M2 12h2m16 0h2M4.93 4.93l1.41 1.41m11.32 11.32 1.41 1.41M12 2v2m0 16v2"/></symbol><symbol viewBox="0 0 24 24" id="table"><rect width="18" height="18" x="3" y="3" rx="2"/><path d="M9 3v18M3 9h18"/></symbol><symbol viewBox="0 0 24 24" id="table-cells"><rect width="18" height="18" x="3" y="3" rx="2"/><path d="M12 21V3m9 12H3m18-6H3"/></symbol><symbol viewBox="0 0 24 24" id="table-cells-merge"><rect width="18" height="18" x="3" y="3" rx="2"/><path d="M12 9V3m9 12H3m18-6H3m9 6v6"/></symbol><symbol viewBox="0 0 24 24" id="table-cells-split"><rect width="18" height="18" x="3" y="3" rx="2"/><path d="M21 15H3m18-6H3m9 0v6"/></symbol><symbol viewBox="0 0 24 24" id="table-list"><rect width="18" height="18" x="3" y="3" rx="2"/><path d="M9 3v18M3 9h18M3 15h18"/></symbol><symbol viewBox="0 0 24 24" id="table-minus"><path d="M16 19h6m-1-7V5a2 2 0 0 0-2-2H5a2 2 0 0 0-2 2v14a2 2 0 0 0 2 2h7m9-12H3m6-6v18"/></symbol><symbol viewBox="0 0 24 24" id="table-plus"><path d="M16 19h6m-3-3v6m2-10V5a2 2 0 0 0-2-2H5a2 2 0 0 0-2 2v14a2 2 0 0 0 2 2h7m9-12H3m6-6v18"/></symbol><symbol viewBox="0 0 24 24" id="table-remove"><path d="M21 12V5a2 2 0 0 0-2-2H5a2 2 0 0 0-2 2v14a2 2 0 0 0 2 2h7m9-12H3m6-6v18m8-4 4 4m0-4-4 4"/></symbol><symbol viewBox="0 0 24 24" id="table-sheet"><rect width="18" height="18" x="3" y="3" rx="2"/><path d="M21 15H3m18-6H3m6 0v12m6-12v12"/></symbol><symbol viewBox="0 0 24 24" id="tag"><circle cx="7.5" cy="7.5" r=".5" fill="currentColor"/><path d="M12 2H2v10l9.4 9.4a2 2-45 0 0 2.83 0l7.17-7.17a2 2-45 0 0 0-2.83Z"/></symbol><symbol viewBox="0 0 24 24" id="telegram"><path d="m14 11-3 3 7 7 4-18-20 8 5 2 2 6 3.5-3.5"/></symbol><symbol viewBox="0 0 24 24" id="terminal"><rect width="18" height="18" x="3" y="3" rx="2"/><path d="m8 9 3 3-3 3m5 1h3"/></symbol><symbol viewBox="0 0 24 24" id="text"><path d="M15 20H9m3 0V4m8 3V4H4v3"/></symbol><symbol viewBox="0 0 24 24" id="threads"><path d="M9 8c2-2 7-1 7 4s-5 6-7 4 1-6.4 7-4 2.5 10-4 10S2 16 4 8s14-8 16 0"/></symbol><symbol viewBox="0 0 24 24" id="thumbs-down"><path d="M2.1 12A2 2.3 0 0 0 4 15h6v4a3 3 0 0 0 3 3l4-9h4a1 1 0 0 0 1-1V4a1 1 0 0 0-1-1h-4l-4-1H7a3 2.5 0 0 0-3 2ZM17 3v10"/></symbol><symbol viewBox="0 0 24 24" id="thumbs-up"><path d="M7 11v10m13-1a3 2.5 180 0 1-3 2h-6l-4-1H3a1 1 180 0 1-1-1v-8a1 1 180 0 1 1-1h4l4-9a3 3 180 0 1 3 3v4h6a2 2.3 180 0 1 1.9 3Z"/></symbol><symbol viewBox="0 0 24 24" id="tiktok"><path d="M11 16a1 1 0 0 0-4 0 1 1 0 0 0 4 0V1h5q2 5 6 5v5q-4 0-6-2v7a7 7 0 1 1-5-6.7"/></symbol><symbol viewBox="0 0 24 24" id="trash"><path d="M3 6h18m-2 0v14a2 2 0 0 1-2 2H7a2 2 0 0 1-2-2V6m3 0V4a2 2 0 0 1 2-2h4a2 2 0 0 1 2 2v2"/></symbol><symbol viewBox="0 0 24 24" id="trash-can"><path d="M14 11v6m-4-6v6m6-11V4a2 2 0 0 0-2-2h-4a2 2 0 0 0-2 2v2M5 6v14a2 2 0 0 0 2 2h10a2 2 0 0 0 2-2V6m2 0H3"/></symbol><symbol viewBox="0 0 24 24" id="tree"><circle cx="12" cy="11" r="9"/><path d="M12 23v-9"/></symbol><symbol viewBox="0 0 24 24" id="tree-deciduous"><path d="M6 20a4 4 0 0 1-1.32-7.78A4 4 0 0 1 8 6a3.5 3.5 0 1 1 8 0 4 4 0 0 1 3.32 6.22A4 4 0 0 1 18 20Zm6 3v-9"/></symbol><symbol viewBox="0 0 24 24" id="tree-pine"><path d="M22 20H2l6-8H4.5L12 2l7.5 10H16Zm-10-6v9"/></symbol><symbol viewBox="0 0 24 24" id="trello"><rect width="18" height="18" x="3" y="3" rx="2"/><path d="M7 7h3v9H7Zm7 0h3v5h-3Z"/></symbol><symbol viewBox="0 0 24 24" id="trending-down"><path d="M22 11v6h-6M2 7l6 6 5-5 9 9"/></symbol><symbol viewBox="0 0 24 24" id="trending-up"><path d="m22 7-9 9-5-5-6 6M16 7h6v6"/></symbol><symbol viewBox="0 0 24 24" id="triangle"><path d="M10.27 4a2 2 0 0 1 3.46 0l8 14A2 2 0 0 1 20 21H4a2 2 0 0 1-1.73-3Z"/></symbol><symbol viewBox="0 0 24 24" id="triangle-exclamation"><path d="M12 9v4m0 4ZM10.27 4a2 2 0 0 1 3.46 0l8 14A2 2 0 0 1 20 21H4a2 2 0 0 1-1.73-3Z"/></symbol><symbol viewBox="0 0 24 24" id="tumblr"><path d="M18 17.5V22h-4a5 5 0 0 1-5-5v-7H7V6.5q3.3-.9 3.5-4.5H14v4h4v4h-4v6.5q0 1 1 1Z"/></symbol><symbol viewBox="0 0 24 24" id="turn-down-left"><path d="m9 10-5 5 5 5M20 4v7a4 4 0 0 1-4 4H4"/></symbol><symbol viewBox="0 0 24 24" id="turn-down-right"><path d="m15 10 5 5-5 5M4 4v7a4 4 0 0 0 4 4h12"/></symbol><symbol viewBox="0 0 24 24" id="turn-left-down"><path d="M9 20V8a4 4 0 0 1 4-4h7M4 15l5 5 5-5"/></symbol><symbol viewBox="0 0 24 24" id="turn-left-up"><path d="M9 4v12a4 4 0 0 0 4 4h7M4 9l5-5 5 5"/></symbol><symbol viewBox="0 0 24 24" id="turn-right-down"><path d="m10 15 5 5 5-5M4 4h7a4 4 0 0 1 4 4v12"/></symbol><symbol viewBox="0 0 24 24" id="turn-right-up"><path d="m10 9 5-5 5 5M4 20h7a4 4 0 0 0 4-4V4"/></symbol><symbol viewBox="0 0 24 24" id="turn-up-left"><path d="M4 9h12a4 4 0 0 1 4 4v7M9 4 4 9l5 5"/></symbol><symbol viewBox="0 0 24 24" id="turn-up-right"><path d="M20 9H8a4 4 0 0 0-4 4v7M15 4l5 5-5 5"/></symbol><symbol viewBox="0 0 24 24" id="tv"><rect width="22" height="15" x="1" y="3" rx="2"/><path d="M7 21h10m-5-3v3"/></symbol><symbol viewBox="0 0 24 24" id="tv-retro"><rect width="20" height="15" x="2" y="7" rx="2"/><path d="m7 2 5 5 5-5"/></symbol><symbol viewBox="0 0 24 24" id="twitch"><path d="M16 11V7m-5 4V7m1 11h5l4-4V2H7L3 6v12h5v4Z"/></symbol><symbol viewBox="0 0 24 24" id="twitter"><path d="M12 8a4.5 4.5 0 0 1 8-3q2 0 3-1 0 2-2 4A13 12 0 0 1 1 19q5 0 7-2-8-4-5-13 4 5 9 5Z"/></symbol><symbol viewBox="0 0 24 24" id="unlink"><path d="M19 19 5 5m8 13-3 3a1 1 0 0 1-7-7l3-3m5-5 3-3a1 1 0 0 1 7 7l-3 3"/></symbol><symbol viewBox="0 0 24 24" id="upload"><path d="M2 15v4a2 2 0 0 0 2 2h16a2 2 0 0 0 2-2v-4M12 3v12m5-7-5-5-5 5"/></symbol><symbol viewBox="0 0 24 24" id="upload-cloud"><path d="M3 16.3A8 8 0 1 1 16.746 9H18a5 5 0 0 1 3 9m-9-5v8m-4-4 4-4 4 4"/></symbol><symbol viewBox="0 0 24 24" id="usdt"><path d="M16 9a8 2.68 0 1 1-8 0m4 5v6m0-10V4m7 0H5"/></symbol><symbol viewBox="0 0 24 24" id="user"><circle cx="12" cy="6" r="4"/><path d="M3 22a1 1 0 0 1 18 0Z"/></symbol><symbol viewBox="0 0 24 24" id="vimeo"><path d="M1 7.5q9-10 10 .5t4.5 4T14 7q1-4.5 6-4.5t2 7-8 10.6-6.8-3.6-2.6-8-2.6.6Z"/></symbol><symbol viewBox="0 0 24 24" id="vinyl-disc"><circle cx="12" cy="12" r="10"/><circle cx="12" cy="12" r="4"/><path d="M12 12Z"/></symbol><symbol viewBox="0 0 24 24" id="visual-studio-code"><path d="M12.2 12 17 8.5v7L4 6 1 9l16 14 6-3V4l-6-3-9 7.9m-3.57 3.11L1 15l3 3 3.95-2.91"/></symbol><symbol viewBox="0 0 24 24" id="vk"><path d="M6 6H2v5a8 8 0 0 0 8 8h4v-4.5a4.5 4.5 0 0 1 4 4.5h4q0-5-4-6.5Q22 11 22 6h-4a4.5 4.5 0 0 1-4 4.5V6h-4v9a4 4 0 0 1-4-4Z"/></symbol><symbol viewBox="0 0 24 24" id="volume-high"><path d="M6 9H2v6h4l5 4V5Zm9 7a5 5 0 0 0 0-8m3 12a10 10 0 0 0 0-16"/></symbol><symbol viewBox="0 0 24 24" id="volume-low"><path d="M6 9H2v6h4l5 4V5Zm9 7a5 5 0 0 0 0-8"/></symbol><symbol viewBox="0 0 24 24" id="volume-off"><path d="M6 9H2v6h4l5 4V5Z"/></symbol><symbol viewBox="0 0 24 24" id="volume-xmark"><path d="M6 9H2v6h4l5 4V5Zm10 0 6 6m0-6-6 6"/></symbol><symbol viewBox="0 0 24 24" id="vuejs"><path d="m6 3 6 10.36L18 3m-6 3.45L14 3h9L12 22 1 3h9Z"/></symbol><symbol viewBox="0 0 24 24" id="wave"><path d="M2 12a2 2 0 0 1 2 2v3a2 2 0 0 0 4 0V4a2 2 0 0 1 4 0v16a2 2 0 0 0 4 0V7a2 2 0 0 1 4 0v3a2 2 0 0 0 2 2"/></symbol><symbol viewBox="0 0 24 24" id="wave-lines"><path d="M3 11v2m3-3v4m3-8v12m3-16v20m3-12v4m3-8v12m3-7v2"/></symbol><symbol viewBox="0 0 24 24" id="wave-pulse"><path d="M2 12h4l3 10 6-20 3 10h4"/></symbol><symbol viewBox="0 0 24 24" id="wave-square"><path d="M2 12h4v10h6V2h6v10h4"/></symbol><symbol viewBox="0 0 24 24" id="whatsapp"><circle cx="9" cy="9" r="1"/><circle cx="15" cy="15" r="1"/><path d="m2 22 .8-4A11 11 0 1 1 6 21.2Zm13-6a7 7 0 0 1-7-7"/></symbol><symbol viewBox="0 0 24 24" id="wikipedia"><path d="M1 5h3m3.5 0h3m3 0h3M20 5h3M2.5 5l6 15 6-15m-5 0 6 15 6-15"/></symbol><symbol viewBox="0 0 24 24" id="wind"><path d="M10 5a3 3 0 1 1 3 3H2m2 11a3 3 0 1 0 3-3H2m14-1a3 3 0 1 0 3-3H2"/></symbol><symbol viewBox="0 0 24 24" id="windows"><path d="m2 19 20 3V2L2 5Zm8.7-15.3v16.6M22 12H2"/></symbol><symbol viewBox="0 0 24 24" id="wordpress"><circle cx="12" cy="12" r="11"/><path d="M1.76 8H6M2.8 8 8 21l4-10M9 8h5m-3.2 0L16 21l4-10c4-10-8-9 0 0M8 21l4-10"/></symbol><symbol viewBox="0 0 24 24" id="x"><path d="m3 21 7.54-7.54m2.92-2.92L21 3M8 3H3l13 18h5Z"/></symbol><symbol viewBox="0 0 24 24" id="xmark"><path d="M18 6 6 18M6 6l12 12"/></symbol><symbol viewBox="0 0 24 24" id="youtube"><path d="M1.4 17q-.9-5 0-10Q1.8 4.8 4 4.5q8-1 16 0 2.2.3 2.6 2.5.9 5 0 10-.4 2.2-2.6 2.5-8 1-16 0-2.2-.3-2.6-2.5Zm8.1-8.5v7l6-3.5Z"/></symbol></svg>